<svg width="208" height="88" viewBox="0 0 208 88" fill="none" xmlns="http://www.w3.org/2000/svg">
    <rect x="16" y="24" width="40" height="40" rx="6" fill="url(#paint0_linear_4355_3118)" />
    <path
        d="M79.088 57.36C77.072 57.36 75.128 56.964 73.256 56.172C71.384 55.38 69.728 54.264 68.288 52.824L70.592 50.16C71.96 51.504 73.352 52.5 74.768 53.148C76.208 53.796 77.708 54.12 79.268 54.12C80.492 54.12 81.56 53.952 82.472 53.616C83.408 53.256 84.128 52.752 84.632 52.104C85.136 51.456 85.388 50.724 85.388 49.908C85.388 48.78 84.992 47.916 84.2 47.316C83.408 46.716 82.1 46.26 80.276 45.948L76.064 45.264C73.76 44.856 72.032 44.112 70.88 43.032C69.752 41.952 69.188 40.512 69.188 38.712C69.188 37.272 69.572 36.012 70.34 34.932C71.108 33.828 72.188 32.976 73.58 32.376C74.996 31.776 76.628 31.476 78.476 31.476C80.3 31.476 82.088 31.776 83.84 32.376C85.616 32.952 87.212 33.792 88.628 34.896L86.54 37.776C83.828 35.712 81.08 34.68 78.296 34.68C77.192 34.68 76.232 34.836 75.416 35.148C74.6 35.46 73.964 35.904 73.508 36.48C73.052 37.032 72.824 37.68 72.824 38.424C72.824 39.456 73.172 40.248 73.868 40.8C74.564 41.328 75.716 41.712 77.324 41.952L81.392 42.636C84.056 43.068 86.012 43.848 87.26 44.976C88.508 46.104 89.132 47.652 89.132 49.62C89.132 51.156 88.712 52.512 87.872 53.688C87.032 54.84 85.856 55.74 84.344 56.388C82.832 57.036 81.08 57.36 79.088 57.36ZM92.2021 57V31.8L95.8021 31.008V40.548C97.2181 39.06 99.0541 38.316 101.31 38.316C102.726 38.316 103.962 38.616 105.018 39.216C106.098 39.816 106.938 40.656 107.538 41.736C108.162 42.816 108.474 44.064 108.474 45.48V57H104.874V46.092C104.874 44.652 104.466 43.524 103.65 42.708C102.834 41.868 101.718 41.448 100.302 41.448C99.3421 41.448 98.4781 41.652 97.7101 42.06C96.9421 42.468 96.3061 43.056 95.8021 43.824V57H92.2021ZM121.34 57.36C119.564 57.36 117.944 56.94 116.48 56.1C115.04 55.26 113.9 54.12 113.06 52.68C112.22 51.24 111.8 49.632 111.8 47.856C111.8 46.08 112.22 44.472 113.06 43.032C113.9 41.592 115.04 40.452 116.48 39.612C117.944 38.748 119.564 38.316 121.34 38.316C123.14 38.316 124.76 38.748 126.2 39.612C127.64 40.452 128.78 41.592 129.62 43.032C130.46 44.472 130.88 46.08 130.88 47.856C130.88 49.632 130.46 51.24 129.62 52.68C128.78 54.12 127.64 55.26 126.2 56.1C124.76 56.94 123.14 57.36 121.34 57.36ZM121.34 54.192C122.468 54.192 123.488 53.916 124.4 53.364C125.312 52.788 126.032 52.02 126.56 51.06C127.088 50.1 127.352 49.02 127.352 47.82C127.352 46.644 127.076 45.588 126.524 44.652C125.996 43.692 125.276 42.924 124.364 42.348C123.476 41.772 122.468 41.484 121.34 41.484C120.212 41.484 119.192 41.772 118.28 42.348C117.392 42.924 116.672 43.692 116.12 44.652C115.592 45.588 115.328 46.644 115.328 47.82C115.328 49.02 115.592 50.1 116.12 51.06C116.648 52.02 117.368 52.788 118.28 53.364C119.192 53.916 120.212 54.192 121.34 54.192ZM134.284 64.344V38.676H137.848V40.44C139.384 39.072 141.256 38.388 143.464 38.388C145.192 38.388 146.752 38.808 148.144 39.648C149.56 40.488 150.676 41.616 151.492 43.032C152.308 44.448 152.716 46.044 152.716 47.82C152.716 49.596 152.296 51.204 151.456 52.644C150.64 54.06 149.524 55.188 148.108 56.028C146.716 56.868 145.144 57.288 143.392 57.288C142.384 57.288 141.412 57.132 140.476 56.82C139.54 56.484 138.676 56.016 137.884 55.416V64.344H134.284ZM142.996 54.156C144.172 54.156 145.216 53.88 146.128 53.328C147.064 52.776 147.808 52.032 148.36 51.096C148.912 50.136 149.188 49.056 149.188 47.856C149.188 46.656 148.912 45.576 148.36 44.616C147.808 43.656 147.064 42.9 146.128 42.348C145.216 41.796 144.172 41.52 142.996 41.52C141.964 41.52 141.004 41.712 140.116 42.096C139.228 42.48 138.484 43.02 137.884 43.716V51.996C138.484 52.668 139.228 53.196 140.116 53.58C141.028 53.964 141.988 54.156 142.996 54.156ZM156.151 57V31.8L159.751 31.116V46.704L168.643 38.676H172.855L163.387 47.244L173.359 57H168.607L159.751 48.396V57H156.151ZM180.299 57.324C178.979 57.324 177.815 57.096 176.807 56.64C175.799 56.16 175.007 55.5 174.431 54.66C173.855 53.82 173.567 52.848 173.567 51.744C173.567 50.016 174.227 48.66 175.547 47.676C176.867 46.668 178.679 46.164 180.983 46.164C182.783 46.164 184.451 46.512 185.987 47.208V45.264C185.987 43.944 185.603 42.96 184.835 42.312C184.091 41.664 182.987 41.34 181.523 41.34C180.683 41.34 179.807 41.472 178.895 41.736C177.983 41.976 176.963 42.36 175.835 42.888L174.503 40.188C175.895 39.54 177.191 39.072 178.391 38.784C179.591 38.472 180.803 38.316 182.027 38.316C184.403 38.316 186.239 38.88 187.535 40.008C188.855 41.136 189.515 42.744 189.515 44.832V57H185.987V55.416C185.171 56.064 184.295 56.544 183.359 56.856C182.423 57.168 181.403 57.324 180.299 57.324ZM177.023 51.672C177.023 52.56 177.395 53.28 178.139 53.832C178.907 54.384 179.903 54.66 181.127 54.66C182.087 54.66 182.963 54.516 183.755 54.228C184.571 53.94 185.315 53.496 185.987 52.896V49.8C185.291 49.392 184.559 49.104 183.791 48.936C183.047 48.744 182.207 48.648 181.271 48.648C179.951 48.648 178.907 48.924 178.139 49.476C177.395 50.004 177.023 50.736 177.023 51.672Z"
        fill="#0C2146" />
    <path
        d="M35.9223 55.32C34.1089 55.32 32.3383 54.9893 30.6102 54.328C28.8822 53.6453 27.3462 52.6853 26.0023 51.448L28.6583 48.12C29.9596 49.272 31.2076 50.104 32.4023 50.616C33.6183 51.128 34.8983 51.384 36.2423 51.384C37.1809 51.384 37.9916 51.2773 38.6743 51.064C39.3569 50.8293 39.8796 50.4987 40.2423 50.072C40.6263 49.6453 40.8183 49.144 40.8183 48.568C40.8183 47.8 40.5409 47.2133 39.9863 46.808C39.4316 46.3813 38.4823 46.0507 37.1383 45.816L32.6903 45.048C30.7916 44.728 29.3409 44.056 28.3383 43.032C27.3569 42.008 26.8663 40.6853 26.8663 39.064C26.8663 37.6773 27.2183 36.472 27.9223 35.448C28.6476 34.424 29.6609 33.6453 30.9623 33.112C32.2849 32.5573 33.8529 32.28 35.6663 32.28C37.3089 32.28 38.9409 32.5573 40.5623 33.112C42.2049 33.6667 43.6556 34.4347 44.9143 35.416L42.4183 38.872C40.0716 37.08 37.7143 36.184 35.3463 36.184C34.5143 36.184 33.7889 36.2907 33.1703 36.504C32.5516 36.7173 32.0716 37.016 31.7303 37.4C31.4103 37.7627 31.2503 38.2 31.2503 38.712C31.2503 39.3947 31.4956 39.928 31.9863 40.312C32.4769 40.6747 33.2983 40.952 34.4503 41.144L38.6743 41.848C40.9143 42.2107 42.5889 42.9253 43.6983 43.992C44.8076 45.0373 45.3623 46.424 45.3623 48.152C45.3623 49.6027 44.9783 50.872 44.2103 51.96C43.4423 53.0267 42.3436 53.8587 40.9143 54.456C39.5063 55.032 37.8423 55.32 35.9223 55.32Z"
        fill="white" />
    <defs>
        <linearGradient id="paint0_linear_4355_3118" x1="16" y1="44" x2="56" y2="44"
            gradientUnits="userSpaceOnUse">
            <stop stop-color="#2979FF" />
            <stop offset="1" stop-color="#4C589E" />
        </linearGradient>
    </defs>
</svg>